  <svg class="header__logo-static header__logo-static--hidden" viewBox="0 0 150 150">
    <defs>
      <linearGradient id="gradientFill">
        <stop offset="0%" stop-color="red" />
        <stop offset="100%" stop-color="blue" />
      </linearGradient>
    </defs>
    <path id="puffy-circle-static" fill="url(#gradientFill)" d="M150,75.2c0-7.3-3.8-12.1-7.8-14.2c2.8-3.5,4.4-9.4,1.5-16.1c-2.5-5.6-6.8-8.5-10.7-9.5
			c0.5-4-0.5-9.1-4.9-13.4c-5.2-5.2-11.3-5.8-15.5-4.5c-0.5-4.4-3.5-9.8-10.3-12.4C96.4,2.9,91.4,3.9,87.9,6C85.5,2.8,81.2,0,75,0
			c-7.3,0-12.1,3.9-14.2,7.8C57.4,5,51.4,3.4,44.8,6.4c-5.6,2.5-8.5,6.8-9.5,10.7c-4-0.5-9.1,0.5-13.4,4.9
			c-5.2,5.2-5.8,11.3-4.4,15.5C13,38.1,7.6,41.1,5,47.9c-2.1,5.5-1.2,10.4,0.7,13.9C2.6,64.3,0,68.5,0,74.4
			c-0.1,7.3,3.8,12.1,7.7,14.2C5,92.1,3.2,98,6.2,104.7c2.5,5.7,6.7,8.6,10.7,9.5c-0.6,4,0.5,9.1,4.9,13.4
			c5.2,5.2,11.2,5.8,15.5,4.6c0.5,4.4,3.5,9.8,10.3,12.5c5.8,2.3,10.8,1.3,14.3-0.8c2.5,3.2,6.8,6.1,13,6.1
			c7.3,0.1,12.1-3.8,14.2-7.7c3.5,2.8,9.4,4.4,16.1,1.6c5.7-2.5,8.5-6.7,9.5-10.7c4,0.5,9.1-0.5,13.4-4.9c5.2-5.2,5.8-11.3,4.5-15.5
			c4.4-0.5,9.8-3.5,12.4-10.3c2.3-5.8,1.3-10.8-0.8-14.3C147.2,85.7,150,81.4,150,75.2z" />

    <path id="logomark-static" d="M75,76v-2h37.5C112,53.7,95.4,37.5,75,37.5c-20.7,0-37.5,16.8-37.5,37.5s16.8,37.5,37.5,37.5c20.4,0,37-16.2,37.5-36.5H75
			z" />
  </svg>