<?xml version="1.0" encoding="utf-8"?>
<!-- Generator: Adobe Illustrator 25.2.3, SVG Export Plug-In . SVG Version: 6.00 Build 0)  -->
<svg version="1.1" id="Layer_1" xmlns="http://www.w3.org/2000/svg" xmlns:xlink="http://www.w3.org/1999/xlink" x="0px" y="0px"
	 viewBox="0 0 1072.8 148" width="520" height="72" enable-background="new 0 0 1072.8 148" xml:space="preserve" role="img" aria-labelledby="site-logo">
   <title id="site-logo">Cromero.io | Front-End Web Developer</title>
<g>
	<g>
		<path d="M74,76v-4h73.9C146.9,32.1,114.2,0,74,0C33.1,0,0,33.1,0,74s33.1,74,74,74c40.2,0,72.9-32.1,73.9-72H74z"/>
	</g>
	<g>
		<path d="M717.9,39v-4h62.9c-13.1-21-36.3-35-62.9-35c-40.9,0-74,33.1-74,74s33.1,74,74,74c26.6,0,49.8-14,62.9-35h-62.9v-4h65.2
			c5.6-10.4,8.8-22.3,8.8-35s-3.2-24.6-8.8-35H717.9z"/>
	</g>
	<g>
		<circle cx="353" cy="74" r="74"/>
	</g>
	<g>
		<circle cx="998.8" cy="74" r="74"/>
	</g>
	<g>
		<path d="M250.9,97.5V55H271c0-30.4-24.6-55-55-55s-55,24.6-55,55v93h89.9V97.5z"/>
	</g>
	<g>
		<path d="M895.5,97.5V55h20.1c0-30.4-24.6-55-55-55s-55,24.6-55,55v93h89.9V97.5z"/>
	</g>
	<g>
		<path d="M581.8,0c-25.8,0-46.6,20.9-46.6,46.6c0-25.8-20.9-46.6-46.6-46.6s-46.6,20.9-46.6,46.6v101.2h44.6V74h4v73.8h89.3V74h4
			v73.8h44.6V46.6C628.4,20.9,607.6,0,581.8,0z"/>
	</g>
</g>
</svg>
